# Blender 3.5.0
# www.blender.org
mtllib needle_R_arm.mtl
o 立方体.001
v 2.129206 0.000000 -0.271872
v 2.129206 0.000000 0.341437
v 0.077458 0.000000 -0.222218
v 0.077458 0.000000 0.215187
v 1.103332 -0.012243 0.859060
v 1.103332 0.051992 0.859060
v 1.103332 -0.054762 -0.859060
v 1.103332 0.039837 -0.859060
vn -0.5316 -0.0000 0.8470
vn 0.4968 -0.0000 -0.8679
vn -0.0274 -0.9993 0.0247
vn 0.0428 0.9991 -0.0071
vn -0.0388 0.9992 -0.0000
vn 0.0119 -0.9999 -0.0000
vn -0.5274 -0.0000 -0.8496
vn 0.4505 -0.0000 0.8928
vn -0.0533 -0.9986 -0.0000
vn 0.0506 0.9987 -0.0000
vn -0.0462 0.9989 -0.0071
vn 0.0392 -0.9989 0.0247
vt 0.249599 0.807903
vt 0.414336 0.694137
vt 0.568707 0.670361
vt 0.578758 0.662992
vt 0.936890 0.286570
vt 0.423482 0.702728
vt 0.437592 0.670336
vt 0.065450 0.803766
vt 0.590309 0.698132
vt 0.832086 0.053420
vt 0.597477 0.692876
vt 0.444115 0.676463
vt 0.833687 0.075396
vt 0.928919 0.305557
vt 0.597477 0.671067
vt 0.825290 0.075396
vt 0.936890 0.308195
vt 0.444115 0.696262
vt 0.256757 0.829203
vt 0.053420 0.823404
vt 0.568774 0.692096
vt 0.244392 0.829203
vt 0.065450 0.826266
vt 0.418106 0.672540
s 0
usemtl マテリアル.001
f 5/13/1 6/16/1 4/10/1
f 7/19/2 8/22/2 1/1/2
f 4/11/3 7/21/3 5/15/3
f 6/18/4 1/2/4 8/24/4
f 4/12/5 8/24/5 3/7/5
f 5/15/6 1/3/6 2/4/6
f 3/8/7 8/23/7 7/20/7
f 2/5/8 6/17/8 5/14/8
f 4/11/9 3/9/9 7/21/9
f 6/18/10 2/6/10 1/2/10
f 4/12/11 6/18/11 8/24/11
f 5/15/12 7/21/12 1/3/12
