# Blender 3.5.0
# www.blender.org
mtllib Rock2.mtl
o rock.002
v 2.783075 -2.909120 -2.841964
v 1.633194 -3.168218 2.715860
v 1.890231 3.328155 1.998985
v -3.265214 2.486261 -2.561800
v -2.372705 3.829075 3.196836
v -3.089201 -2.988217 1.317442
v -2.935315 -3.211023 -2.961843
v -0.119823 3.883546 -0.147805
v 3.113222 -3.751950 0.347103
v 3.346324 0.418011 -0.008711
v 0.024096 -0.018113 -4.032887
v 0.012077 4.219474 3.749989
v -0.699716 -3.445021 2.569096
v -0.358545 -3.736464 -3.370825
v -3.326836 -3.694445 -0.632898
v -3.861803 4.148351 0.758336
v -4.052462 -0.428577 -0.040930
v -3.779083 -0.927243 -3.739962
v -0.174117 0.133122 3.390139
v 1.448268 1.528631 -1.606145
v -1.528636 -1.625051 -4.465868
v -0.012670 -4.547037 -0.132347
v -1.672057 4.846418 1.577040
v -4.560285 -1.672348 -1.589619
v -2.582680 0.082564 2.218150
v 2.282393 0.075246 2.303454
vn 0.6921 0.3792 -0.6142
vn 0.5632 0.5828 -0.5858
vn 0.7103 0.4969 -0.4986
vn 0.1439 0.7885 -0.5980
vn 0.2752 0.7294 -0.6264
vn 0.5448 0.7983 -0.2569
vn 0.3203 0.8258 -0.4641
vn 0.2941 -0.1968 -0.9353
vn 0.3273 -0.1982 -0.9239
vn 0.2120 -0.1924 -0.9581
vn -0.3160 -0.4901 -0.8124
vn -0.3180 -0.4885 -0.8126
vn -0.2390 -0.5481 -0.8015
vn -0.1584 0.3675 -0.9164
vn -0.1573 0.3620 -0.9188
vn -0.1534 0.3430 -0.9267
vn 0.2816 -0.9217 -0.2667
vn 0.0764 -0.9644 -0.2532
vn 0.0177 -0.9683 -0.2492
vn 0.1346 -0.9202 0.3677
vn -0.0726 -0.9334 0.3514
vn 0.1822 -0.9222 0.3411
vn -0.3007 -0.8964 0.3258
vn -0.2829 -0.8903 0.3568
vn -0.2200 -0.9494 -0.2239
vn -0.2298 -0.9445 -0.2347
vn 0.3999 0.9116 -0.0958
vn 0.3960 0.9173 -0.0422
vn -0.0553 0.8734 -0.4838
vn -0.3119 0.8595 0.4049
vn -0.3358 0.8562 0.3925
vn -0.4020 0.8436 0.3560
vn -0.8635 -0.1290 0.4876
vn -0.9129 -0.2599 0.3148
vn -0.7943 -0.1768 0.5813
vn -0.9508 0.2898 -0.1093
vn -0.9614 0.2308 -0.1498
vn -0.9789 0.1238 -0.1626
vn -0.7821 -0.5207 -0.3423
vn -0.7829 -0.5136 -0.3511
vn -0.7849 -0.4390 -0.4373
vn -0.0233 -0.1243 0.9920
vn -0.2791 -0.1900 0.9413
vn 0.1389 -0.1246 0.9824
vn -0.2908 -0.1234 0.9488
vn -0.6573 -0.1214 0.7438
vn -0.8462 -0.0769 0.5273
vn 0.9906 -0.0656 -0.1199
vn 0.7676 0.1508 0.6229
vn 0.7287 0.0261 0.6843
vn 0.9039 0.0552 0.4241
vn 0.5837 0.0367 0.8111
vn 0.8331 -0.0975 0.5445
vn 0.8675 -0.0638 0.4933
vn 0.6720 0.3793 -0.6361
vn 0.4508 -0.2012 -0.8697
vn -0.3944 -0.4236 -0.8155
vn -0.1656 0.4026 -0.9003
vn 0.2762 -0.9217 -0.2722
vn -0.1204 -0.9295 0.3486
vn -0.0694 0.8432 -0.5332
vn -0.2433 0.8653 0.4382
vn -0.8277 -0.2728 0.4905
vn -0.8496 0.5108 -0.1316
vn -0.7689 -0.5879 -0.2513
vn -0.8553 -0.0856 0.5111
vn -0.9737 0.0779 -0.2140
vn -0.2135 -0.0760 0.9740
vt 1.000000 1.000000
vt 0.000000 0.000000
vt 1.000000 0.000000
vt 0.000000 0.000000
vt 1.000000 1.000000
vt 0.000000 0.000000
vt 1.000000 1.000000
vt 0.000000 0.000000
vt 1.000000 0.000000
vt 0.000000 0.000000
vt 1.000000 0.000000
vt 1.000000 0.000000
vt 1.000000 1.000000
vt 1.000000 1.000000
vt 0.000000 0.000000
vt 1.000000 0.000000
vt 1.000000 1.000000
vt 1.000000 0.000000
vt 1.000000 1.000000
vt 1.000000 1.000000
vt 1.000000 0.000000
vt 0.000000 0.000000
vt 1.000000 0.000000
vt 1.000000 1.000000
vt 0.000000 0.000000
vt 1.000000 1.000000
vt 1.000000 0.000000
vt 0.000000 0.000000
vt 1.000000 0.000000
vt 1.000000 1.000000
vt 1.000000 1.000000
vt 0.000000 0.000000
vt 1.000000 1.000000
vt 1.000000 0.000000
vt 1.000000 1.000000
vt 1.000000 0.000000
vt 0.000000 0.000000
vt 0.000000 0.000000
vt 1.000000 1.000000
vt 1.000000 0.000000
vt 1.000000 0.000000
vt 1.000000 1.000000
vt 0.000000 0.000000
vt 0.000000 0.000000
vt 1.000000 1.000000
vt 1.000000 0.000000
vt 1.000000 0.000000
vt 1.000000 1.000000
vt 1.000000 1.000000
vt 1.000000 0.000000
vt 1.000000 1.000000
vt 0.000000 0.000000
vt 1.000000 0.000000
vt 1.000000 0.000000
vt 1.000000 1.000000
vt 1.000000 0.000000
vt 1.000000 1.000000
vt 1.000000 0.000000
vt 1.000000 1.000000
vt 0.000000 0.000000
vt 1.000000 0.000000
vt 1.000000 1.000000
vt 0.000000 0.000000
s 1
usemtl マテリアル.011
f 1/2/1 20/47/2 10/20/3
f 4/8/4 20/47/2 11/24/5
f 3/6/6 20/47/2 8/17/7
f 14/32/8 11/23/9 1/1/10
f 7/15/11 21/50/12 14/31/13
f 11/25/14 18/41/15 4/7/16
f 1/2/17 22/53/18 14/31/19
f 2/4/20 22/53/21 9/19/22
f 22/52/21 6/12/23 15/33/24
f 14/32/19 15/34/25 7/14/26
f 3/6/6 23/54/27 12/26/28
f 16/37/29 8/16/7 4/7/4
f 5/10/30 23/54/31 16/35/32
f 17/38/33 15/34/34 6/13/35
f 18/43/36 17/40/37 4/7/38
f 7/15/39 24/56/40 18/42/41
f 19/44/42 13/29/43 2/5/44
f 5/10/45 25/58/46 19/45/42
f 16/37/47 17/40/33 25/59/46
f 25/60/46 6/12/35 13/30/43
f 10/22/48 9/18/48 1/1/48
f 3/6/49 26/61/50 10/20/51
f 12/28/52 19/46/42 26/62/50
f 26/63/50 2/3/53 9/19/54
f 1/2/1 11/23/55 20/48/2
f 4/8/4 8/16/7 20/48/2
f 3/6/6 10/21/3 20/48/2
f 14/32/8 21/50/56 11/24/9
f 7/15/11 18/41/57 21/49/12
f 11/25/14 21/50/58 18/42/15
f 1/2/17 9/18/59 22/51/18
f 2/4/20 13/29/60 22/51/21
f 22/52/21 13/29/60 6/13/23
f 14/32/19 22/53/18 15/33/25
f 3/6/6 8/16/7 23/55/27
f 16/37/29 23/54/61 8/17/7
f 5/10/30 12/27/62 23/55/31
f 17/38/33 24/56/63 15/33/34
f 18/43/36 24/56/64 17/39/37
f 7/15/39 15/34/65 24/57/40
f 19/44/42 25/58/46 13/30/43
f 5/10/66 16/36/47 25/59/46
f 16/37/67 4/9/38 17/39/37
f 25/60/46 17/40/33 6/13/35
f 10/22/51 26/61/50 9/19/54
f 3/6/49 12/27/52 26/62/50
f 12/28/68 5/11/45 19/45/42
f 26/63/50 19/46/42 2/5/44
