# Blender 3.5.0
# www.blender.org
mtllib needle_L_arm.mtl
o 立方体
v -0.045864 0.000000 -0.271872
v -0.045864 0.000000 0.341437
v -2.097613 0.000000 -0.222218
v -2.097613 0.000000 0.215187
v -1.071738 -0.012243 0.859060
v -1.071738 0.051992 0.859060
v -1.071738 -0.054762 -0.859060
v -1.071738 0.039837 -0.859060
vn -0.5316 -0.0000 0.8470
vn 0.4968 -0.0000 -0.8679
vn -0.0274 -0.9993 0.0247
vn 0.0428 0.9991 -0.0071
vn -0.0388 0.9992 -0.0000
vn 0.0119 -0.9999 -0.0000
vn -0.5274 -0.0000 -0.8496
vn 0.4505 -0.0000 0.8928
vn -0.0533 -0.9986 -0.0000
vn 0.0506 0.9987 -0.0000
vn -0.0462 0.9989 -0.0071
vn 0.0392 -0.9989 0.0247
vt 0.709524 0.805219
vt 0.244392 0.692472
vt 0.053420 0.669154
vt 0.063471 0.661785
vt 0.940801 0.662992
vt 0.253538 0.701062
vt 0.267648 0.668671
vt 0.580737 0.804973
vt 0.075022 0.696925
vt 0.421132 0.809568
vt 0.082190 0.691669
vt 0.274171 0.674797
vt 0.422732 0.831544
vt 0.932830 0.681979
vt 0.082190 0.669860
vt 0.414336 0.831544
vt 0.940801 0.684617
vt 0.274171 0.694597
vt 0.716683 0.826518
vt 0.568707 0.824611
vt 0.053487 0.690889
vt 0.704317 0.826518
vt 0.580737 0.827473
vt 0.248161 0.670875
s 0
usemtl マテリアル
f 5/13/1 6/16/1 4/10/1
f 7/19/2 8/22/2 1/1/2
f 4/11/3 7/21/3 5/15/3
f 6/18/4 1/2/4 8/24/4
f 4/12/5 8/24/5 3/7/5
f 5/15/6 1/3/6 2/4/6
f 3/8/7 8/23/7 7/20/7
f 2/5/8 6/17/8 5/14/8
f 4/11/9 3/9/9 7/21/9
f 6/18/10 2/6/10 1/2/10
f 4/12/11 6/18/11 8/24/11
f 5/15/12 7/21/12 1/3/12
