# Blender 3.5.0
# www.blender.org
mtllib Signboard.mtl
o 立方体.002
v 0.100000 0.020107 -0.100000
v 5.000000 9.321882 -0.200000
v 5.000000 15.321882 -0.200000
v 0.100000 0.020107 0.100000
v 5.000000 9.321882 0.200000
v 5.000000 15.321882 0.200000
v -0.100000 0.020107 -0.100000
v -5.000000 9.321882 -0.200000
v -5.000000 15.321882 -0.200000
v -0.100000 0.020107 0.100000
v -5.000000 9.321882 0.200000
v -5.000000 15.321882 0.200000
v 0.100000 9.321882 -0.100000
v 0.100000 9.321882 0.100000
v -0.100000 9.321882 0.100000
v -0.100000 9.321882 -0.100000
vn 1.0000 -0.0000 -0.0000
vn -0.0000 -0.0000 1.0000
vn -1.0000 -0.0000 -0.0000
vn -0.0000 -0.0000 -1.0000
vn -0.0000 -1.0000 -0.0000
vn -0.0000 1.0000 -0.0000
vt 0.375000 0.000000
vt 0.375000 1.000000
vt 0.125000 0.750000
vt 0.375000 0.000000
vt 0.375000 1.000000
vt 0.125000 0.750000
vt 0.625000 0.000000
vt 0.625000 1.000000
vt 0.875000 0.750000
vt 0.125000 0.500000
vt 0.375000 0.250000
vt 0.375000 0.250000
vt 0.125000 0.500000
vt 0.625000 0.250000
vt 0.875000 0.500000
vt 0.375000 0.750000
vt 0.375000 0.750000
vt 0.625000 0.750000
vt 0.375000 0.500000
vt 0.375000 0.500000
vt 0.625000 0.500000
vt 0.607544 1.000000
vt 0.607544 0.000000
vt 0.247500 0.687500
vt 0.607544 0.250000
vt 0.247500 0.562500
vt 0.607544 0.500000
vt 0.252500 0.562500
vt 0.607544 0.750000
vt 0.252500 0.687500
s 0
usemtl マテリアル.013
f 1/1/1 14/25/1 4/11/1
f 4/11/2 15/27/2 10/19/2
f 7/16/3 15/27/3 16/29/3
f 1/2/4 16/29/4 13/22/4
f 10/19/5 1/3/5 4/10/5
f 3/7/1 5/12/1 2/4/1
f 6/14/2 11/20/2 5/12/2
f 12/21/3 8/17/3 11/20/3
f 9/18/4 2/5/4 8/17/4
f 5/13/5 11/20/5 14/26/5
f 8/17/5 13/24/5 16/30/5
f 6/15/6 9/18/6 12/21/6
f 1/1/1 13/23/1 14/25/1
f 4/11/2 14/25/2 15/27/2
f 7/16/3 10/19/3 15/27/3
f 1/2/4 7/16/4 16/29/4
f 10/19/5 7/16/5 1/3/5
f 3/7/1 6/14/1 5/12/1
f 6/14/2 12/21/2 11/20/2
f 12/21/3 9/18/3 8/17/3
f 9/18/4 3/8/4 2/5/4
f 14/26/5 13/24/5 2/6/5
f 11/20/5 8/17/5 16/30/5
f 11/20/5 16/30/5 15/28/5
f 14/26/5 2/6/5 5/13/5
f 11/20/5 15/28/5 14/26/5
f 8/17/5 2/6/5 13/24/5
f 6/15/6 3/9/6 9/18/6
