# Blender 3.5.0
# www.blender.org
mtllib Rock0.mtl
o rock
v -0.008262 3.971787 -0.022001
v -4.206646 -3.989850 -2.689249
v -4.481844 -4.604444 4.431504
v 3.183457 -3.642248 3.210094
v 3.315346 -3.688065 -3.237339
v 0.205352 -1.058713 -3.443354
v -3.211775 -0.158454 -0.653412
v -0.529796 -0.333614 3.270541
v 3.243598 -0.632473 0.000014
v 0.003980 -5.195618 -0.002661
v -2.308318 0.071167 -2.164238
v -2.328411 0.016982 2.311850
v 2.198512 0.155874 2.200313
v 2.239236 0.125861 -2.239568
v 0.022407 0.927169 -2.395223
v -1.816735 2.047986 -0.098090
v -0.095722 1.789538 1.957402
v 1.818356 2.163308 0.000183
v 3.673541 -1.964381 -1.366701
v 1.867807 -4.990418 -1.867962
v -4.843485 -4.814981 0.241790
v 1.852890 -4.937873 1.863514
v -0.093460 -4.372383 -4.038608
v 3.750533 -1.941880 1.391398
v -0.169307 -4.809606 4.750839
v -1.468137 -2.036125 -3.656115
v -4.066405 -2.287246 -2.134084
v 4.114101 -4.325760 0.000911
v -3.835650 -1.974437 1.414134
v -2.381043 -2.336365 4.138580
v -1.978096 -4.994444 -1.784566
v 2.126994 -2.392834 -3.940358
v 1.294323 -1.863235 3.730699
v -1.990458 -4.991691 1.990471
v -2.771431 0.051747 -1.613476
v -2.831228 0.156219 1.520167
v -1.710812 0.074285 2.846639
v 1.452298 0.144115 2.707505
v 2.695960 0.092842 1.470211
v 2.750312 0.125195 -1.492426
v 1.601903 -0.194012 -2.818031
v -1.496899 -0.150145 -2.725070
v -3.197653 -5.062832 0.070946
v -0.045760 -5.005302 3.150203
v 3.013041 -4.889684 0.000219
v -0.039897 -4.957253 -3.005059
v -4.468037 -3.212402 -0.087796
v -0.210920 -3.215088 4.378886
v 4.220513 -3.080807 0.000401
v 0.095093 -3.167984 -4.207027
vn -0.5148 0.5357 -0.6693
vn -0.7252 0.6123 -0.3148
vn -0.4729 0.6217 -0.6244
vn -0.8088 0.3420 -0.4784
vn -0.4288 0.1938 -0.8824
vn -0.8685 0.4895 -0.0782
vn -0.7197 0.5641 -0.4047
vn -0.6666 0.6337 0.3925
vn -0.6273 0.5700 0.5306
vn -0.5568 0.6395 0.5301
vn -0.7738 0.5262 0.3527
vn -0.8984 0.4056 0.1682
vn -0.9119 0.3855 0.1407
vn -0.4033 0.6389 0.6551
vn -0.2352 0.4135 0.8796
vn -0.4894 0.5415 0.6836
vn 0.0073 0.4688 0.8833
vn -0.3736 0.5977 0.7094
vn 0.2499 0.5962 0.7630
vn 0.6093 0.5013 0.6144
vn 0.4986 0.6331 0.5921
vn 0.3486 0.5117 0.7853
vn 0.3185 0.3191 0.8926
vn 0.6992 0.1942 0.6880
vn 0.7527 0.6582 0.0095
vn 0.9142 0.2726 0.2998
vn 0.9063 0.4226 0.0010
vn 0.8144 0.4815 0.3239
vn 0.5767 0.5322 -0.6198
vn 0.4717 0.6309 -0.6161
vn 0.8178 0.4684 -0.3344
vn 0.9193 0.2757 -0.2809
vn 0.8706 0.2436 -0.4273
vn -0.0139 0.5799 -0.8145
vn 0.4357 0.4145 -0.7990
vn -0.0212 0.4249 -0.9050
vn 0.2689 0.5426 -0.7958
vn -0.2984 0.5008 -0.8125
vn -0.3160 0.2505 -0.9151
vn -0.2454 -0.9130 -0.3260
vn -0.1435 -0.9878 -0.0609
vn -0.1426 -0.9856 -0.0913
vn 0.0198 -0.9998 -0.0020
vn -0.1693 -0.9564 -0.2382
vn -0.0655 -0.9948 0.0777
vn -0.0765 -0.9939 0.0796
vn 0.1261 -0.9842 0.1247
vn 0.1168 -0.9823 0.1463
vn 0.4189 -0.8465 0.3286
vn 0.2758 -0.9302 0.2422
vn 0.4801 -0.8771 0.0122
vn 0.3421 -0.9396 0.0139
vn 0.2501 -0.9368 -0.2445
vn 0.3874 -0.8370 -0.3865
vn 0.2775 -0.8284 -0.4866
vn 0.0027 -0.9332 -0.3592
vn -0.2511 -0.8586 -0.4469
vn -0.9781 0.1510 -0.1434
vn -0.9623 0.2714 0.0180
vn -0.9662 0.2576 0.0058
vn 0.1178 0.1922 0.9743
vn -0.0638 0.1857 0.9805
vn 0.0889 0.2718 0.9582
vn 0.9461 -0.0430 0.3211
vn 0.9502 -0.0032 -0.3116
vn 0.9284 0.3704 -0.0290
vn 0.2256 -0.2058 -0.9522
vn 0.2549 -0.2394 -0.9369
vn 0.2697 -0.2564 -0.9282
vn -0.3418 -0.0475 -0.9386
vn -0.2117 0.1466 -0.9663
vn 0.9231 -0.0787 0.3764
vn 0.9023 -0.0773 -0.4241
vn 0.1900 -0.1651 -0.9678
vt 0.070484 0.000944
vt 0.070484 0.141913
vt 0.284770 0.000944
vt 0.356199 0.141913
vt 0.213342 0.282882
vt 0.427627 0.000944
vt 0.499056 0.000944
vt 0.070484 0.423851
vt 0.141913 0.000944
vt 0.213342 0.423851
vt 0.284770 0.562932
vt 0.641913 0.423851
vt 0.070484 0.703900
vt 0.713342 0.141913
vt 0.927627 0.140025
vt 0.499056 0.985838
vt 0.213342 0.141913
vt 0.284770 0.141913
vt 0.427627 0.423851
vt 0.499056 0.423851
vt 0.141913 0.564820
vt 0.284770 0.564820
vt 0.141913 0.282882
vt 0.284770 0.282882
vt 0.570484 0.280994
vt 0.570484 0.282882
vt 0.356199 0.564820
vt 0.499056 0.564820
vt 0.927627 0.844869
vt 0.427627 0.282882
vt 0.499056 0.141913
vt 0.641913 0.000944
vt 0.641913 0.141913
vt 0.570484 0.564820
vt 0.713342 0.000944
vt 0.499056 0.421963
vt 0.141913 0.562932
vt 0.713342 0.421963
vt 0.856199 0.421963
vt 0.856199 0.703900
vt 0.999056 0.703900
vt 0.213342 0.140025
vt 0.141913 0.280994
vt 0.213342 0.703900
vt 0.784770 0.140025
vt 0.784770 0.421963
vt 0.641913 0.985838
vt 0.356199 0.140025
vt 0.070484 0.421963
vt 0.427627 0.703900
vt 0.141913 0.844869
vt 0.284770 0.844869
vt 0.856199 0.985838
vt 0.356199 0.421963
vt 0.427627 0.280994
vt 0.641913 0.703900
vt 0.570484 0.844869
vt 0.713342 0.844869
vt 0.999056 0.280994
vt 0.356199 0.562932
vt 0.570484 0.140025
vt 0.570484 0.562932
vt 0.641913 0.421963
vt 0.927627 0.280994
vt 0.927627 0.703900
vt 0.141913 0.985838
vt 0.356199 0.985838
vt 0.070484 0.140025
vt 0.072373 0.070484
vt 0.000944 0.493391
vt 0.213342 0.562932
vt 0.713342 0.562932
vt 0.713342 0.564820
vt 0.856199 0.423851
vt 0.856199 0.844869
vt 0.000944 0.211453
vt 0.213342 0.280994
vt 0.284770 0.140025
vt 0.215230 0.211453
vt 0.784770 0.141913
vt 0.784770 0.562932
vt 0.784770 0.703900
vt 0.070484 0.705789
vt 0.286658 0.211453
vt 0.141913 0.421963
vt 0.213342 0.421963
vt 0.215230 0.352422
vt 0.213342 0.705789
vt 0.356199 0.844869
vt 0.427627 0.844869
vt 0.499056 0.705789
vt 0.358087 0.070484
vt 0.427627 0.421963
vt 0.499056 0.140025
vt 0.429516 0.211453
vt 0.641913 0.705789
vt 0.784770 0.844869
vt 0.856199 0.140025
vt 0.856199 0.141913
vt 0.429516 0.070484
vt 0.070484 0.562932
vt 0.141913 0.423851
vt 0.856199 0.000944
vt 0.786658 0.352422
vt 0.856199 0.562932
vt 0.000944 0.070484
vt 0.070484 0.280994
vt 0.141913 0.141913
vt 0.713342 0.423851
vt 0.715230 0.070484
vt 0.784770 0.280994
vt 0.215230 0.070484
vt 0.356199 0.280994
vt 0.070484 0.282882
vt 0.784770 0.564820
vt 0.072373 0.775329
vt 0.213342 0.844869
vt 0.143801 0.352422
vt 0.427627 0.140025
vt 0.427627 0.141913
vt 0.427627 0.705789
vt 0.500944 0.775329
vt 0.641913 0.844869
vt 0.358087 0.352422
vt 0.570484 0.703900
vt 0.641913 0.564820
vt 0.643801 0.775329
vt 0.784770 0.705789
vt 0.999056 0.140025
vt 0.572373 0.070484
vt 0.641913 0.280994
vt 0.641913 0.282882
vt 0.072373 0.916298
vt 0.213342 0.846758
vt 0.284770 0.985838
vt 0.284770 0.423851
vt 0.427627 0.562932
vt 0.072373 0.634360
vt 0.927627 0.421963
vt 0.429516 0.916298
vt 0.570484 0.846758
vt 0.570484 0.141913
vt 0.570484 0.421963
vt 0.570484 0.423851
vt 0.858087 0.634360
vt 0.070484 0.985838
vt 0.572373 0.211453
vt 0.641913 0.562932
vt 0.713342 0.140025
vt 0.643801 0.211453
vt 0.284770 0.846758
vt 0.427627 0.985838
vt 0.999056 0.421963
vt 0.999056 0.423851
vt 0.284770 0.421963
vt 0.356199 0.282882
vt 0.429516 0.634360
vt 0.499056 0.844869
vt 0.927627 0.846758
vt 0.929516 0.211453
vt 0.429516 0.493391
vt 0.284770 0.703900
vt 0.286658 0.634360
vt 0.927627 0.423851
vt 0.858087 0.775329
vt 0.713342 0.985838
vt 0.784770 0.846758
vt 0.143801 0.493391
vt 0.713342 0.280994
vt 0.713342 0.282882
vt 0.786658 0.634360
vt 0.856199 0.705789
vt 0.999056 0.562932
vt 0.141913 0.140025
vt 0.213342 0.000944
vt 0.070484 0.564820
vt 0.713342 0.703900
vt 0.572373 0.916298
vt 0.500944 0.352422
vt 0.641913 0.140025
vt 0.499056 0.703900
vt 0.500944 0.634360
vt 0.070484 0.846758
vt 0.213342 0.985838
vt 0.927627 0.985838
vt 0.999056 0.000944
vt 0.143801 0.211453
vt 0.141913 0.703900
vt 0.213342 0.564820
vt 0.715230 0.352422
vt 0.784770 0.423851
vt 0.570484 0.985838
vt 0.284770 0.280994
vt 0.356199 0.000944
vt 0.215230 0.634360
vt 0.070484 0.844869
vt 0.713342 0.846758
vt 0.786658 0.916298
vt 0.356199 0.423851
vt 0.572373 0.493391
vt 0.858087 0.070484
vt 0.286658 0.916298
vt 0.427627 0.846758
vt 0.499056 0.280994
vt 0.499056 0.282882
vt 0.643801 0.070484
vt 0.856199 0.280994
vt 0.999056 0.282882
vt 0.929516 0.634360
vt 0.072373 0.352422
vt 0.356199 0.703900
vt 0.427627 0.564820
vt 0.215230 0.775329
vt 0.356199 0.705789
vt 0.784770 0.985838
vt 0.358087 0.493391
vt 0.499056 0.562932
vt 0.570484 0.000944
vt 0.858087 0.211453
vt 0.927627 0.282882
vt 0.927627 0.562932
vt 0.143801 0.070484
vt 0.643801 0.493391
vt 0.643801 0.634360
vt 0.784770 0.000944
vt 0.072373 0.211453
vt 0.715230 0.211453
vt 0.784770 0.282882
vt 0.715230 0.493391
vt 0.286658 0.070484
vt 0.715230 0.634360
vt 0.000944 0.775329
vt 0.141913 0.705789
vt 0.000944 0.352422
vt 0.143801 0.775329
vt 0.284770 0.705789
vt 0.286658 0.775329
vt 0.286658 0.352422
vt 0.358087 0.775329
vt 0.429516 0.775329
vt 0.570484 0.705789
vt 0.358087 0.211453
vt 0.572373 0.775329
vt 0.713342 0.705789
vt 0.715230 0.775329
vt 0.429516 0.352422
vt 0.786658 0.070484
vt 0.786658 0.211453
vt 0.856199 0.282882
vt 0.072373 0.493391
vt 0.786658 0.493391
vt 0.856199 0.564820
vt 0.786658 0.775329
vt 0.215230 0.493391
vt 0.286658 0.493391
vt 0.927627 0.000944
vt 0.927627 0.141913
vt 0.858087 0.352422
vt 0.500944 0.070484
vt 0.500944 0.211453
vt 0.858087 0.493391
vt 0.927627 0.564820
vt 0.927627 0.705789
vt 0.500944 0.493391
vt 0.000944 0.916298
vt 0.141913 0.846758
vt 0.143801 0.916298
vt 0.572373 0.352422
vt 0.215230 0.916298
vt 0.356199 0.846758
vt 0.358087 0.916298
vt 0.000944 0.634360
vt 0.143801 0.634360
vt 0.499056 0.846758
vt 0.500944 0.916298
vt 0.641913 0.846758
vt 0.358087 0.634360
vt 0.643801 0.916298
vt 0.715230 0.916298
vt 0.856199 0.846758
vt 0.572373 0.634360
vt 0.858087 0.916298
vt 0.929516 0.070484
vt 0.999056 0.141913
vt 0.643801 0.352422
vt 0.929516 0.352422
vt 0.929516 0.493391
vt 0.999056 0.564820
s 1
usemtl マテリアル.009
f 11/68/1 16/106/2 1/1/3
f 27/174/4 11/69/1 2/9/5
f 7/42/6 35/222/7 27/175/4
f 16/107/8 12/76/9 1/2/10
f 7/43/6 36/226/11 16/108/2
f 12/77/9 29/187/12 3/17/13
f 12/78/9 17/112/14 1/3/10
f 30/193/15 12/79/9 3/18/16
f 8/48/17 37/230/18 30/194/15
f 17/113/19 13/84/20 1/4/21
f 8/49/17 38/234/22 17/114/19
f 13/85/20 33/210/23 4/23/24
f 13/86/20 18/118/25 1/5/21
f 24/155/26 13/87/20 4/24/24
f 9/54/27 39/238/28 24/156/26
f 18/119/25 14/92/29 1/6/30
f 9/55/27 40/242/31 18/120/25
f 14/93/29 19/124/32 5/30/33
f 14/94/29 15/100/34 1/7/30
f 32/204/35 14/95/29 5/31/33
f 6/36/36 41/246/37 32/205/35
f 15/101/34 11/70/1 1/8/3
f 6/37/36 42/250/38 15/102/34
f 11/71/1 26/168/39 2/10/5
f 2/11/40 43/254/41 21/136/42
f 10/60/43 43/255/41 31/199/44
f 21/137/42 34/216/45 3/19/46
f 34/217/45 25/161/47 3/20/46
f 10/61/43 44/259/48 34/218/45
f 4/25/49 44/260/48 22/142/50
f 22/143/50 28/179/51 4/26/49
f 10/62/43 45/264/52 22/144/50
f 28/180/51 20/130/53 5/32/54
f 20/131/53 23/147/55 5/33/54
f 10/63/43 46/268/56 20/132/53
f 23/148/57 31/200/44 2/12/40
f 2/13/58 47/272/59 27/176/4
f 29/188/12 21/138/60 3/21/13
f 7/44/6 47/273/59 29/189/12
f 25/162/61 30/195/15 3/22/62
f 33/211/23 25/163/61 4/27/24
f 8/50/17 48/277/63 33/212/23
f 28/181/64 24/157/26 4/28/24
f 19/125/32 28/182/65 5/34/33
f 9/56/27 49/281/66 19/126/32
f 23/149/67 32/206/68 5/35/69
f 26/169/39 23/150/70 2/14/5
f 6/38/36 50/285/71 26/170/39
f 11/72/1 35/223/7 16/109/2
f 27/177/4 35/224/7 11/73/1
f 7/45/6 16/110/2 35/225/7
f 16/111/8 36/227/11 12/80/9
f 7/46/6 29/190/12 36/228/11
f 12/81/9 36/229/11 29/191/12
f 12/82/9 37/231/18 17/115/14
f 30/196/15 37/232/18 12/83/9
f 8/51/17 17/116/19 37/233/18
f 17/117/19 38/235/22 13/88/20
f 8/52/17 33/213/23 38/236/22
f 13/89/20 38/237/22 33/214/23
f 13/90/20 39/239/28 18/121/25
f 24/158/26 39/240/28 13/91/20
f 9/57/27 18/122/25 39/241/28
f 18/123/25 40/243/31 14/96/29
f 9/58/27 19/127/32 40/244/31
f 14/97/29 40/245/31 19/128/32
f 14/98/29 41/247/37 15/103/34
f 32/207/35 41/248/37 14/99/29
f 6/39/36 15/104/34 41/249/37
f 15/105/34 42/251/38 11/74/1
f 6/40/36 26/171/39 42/252/38
f 11/75/1 42/253/38 26/172/39
f 2/15/40 31/201/44 43/256/41
f 10/64/43 34/219/45 43/257/41
f 21/139/42 43/258/41 34/220/45
f 34/221/45 44/261/48 25/164/47
f 10/65/43 22/145/50 44/262/48
f 4/29/49 25/165/47 44/263/48
f 22/146/50 45/265/52 28/183/51
f 10/66/43 20/133/53 45/266/52
f 28/184/51 45/267/52 20/134/53
f 20/135/53 46/269/56 23/151/55
f 10/67/43 31/202/44 46/270/56
f 23/152/57 46/271/56 31/203/44
f 2/16/58 21/140/60 47/274/59
f 29/192/12 47/275/59 21/141/60
f 7/47/6 27/178/4 47/276/59
f 25/166/61 48/278/63 30/197/15
f 33/215/23 48/279/63 25/167/61
f 8/53/17 30/198/15 48/280/63
f 28/185/64 49/282/72 24/159/26
f 19/129/32 49/283/73 28/186/65
f 9/59/27 24/160/26 49/284/66
f 23/153/67 50/286/74 32/208/68
f 26/173/39 50/287/71 23/154/70
f 6/41/36 32/209/35 50/288/71
