# Blender 3.5.0
# www.blender.org
mtllib float_Body.mtl
o body
v 0.990590 4.063178 -1.108851
v 0.990590 4.063178 0.919129
v -0.023400 0.007217 -0.094861
v -1.037390 4.063178 -1.108851
v -1.037390 4.063178 0.919129
vn 0.9701 -0.2425 -0.0000
vn -0.0000 -0.2425 0.9701
vn -0.9701 -0.2425 -0.0000
vn -0.0000 -0.2425 -0.9701
vn -0.0000 1.0000 -0.0000
vt 0.113423 0.534640
vt 0.273660 0.314827
vt 0.893946 0.116602
vt 0.080118 0.519746
vt 0.500506 0.329721
vt 0.893946 0.080118
vt 0.113423 0.489957
vt 0.500506 0.285038
vt 0.500506 0.080118
vt 0.306964 0.285038
vt 0.467201 0.109907
vt 0.306964 0.329721
vt 0.857462 0.116602
vt 0.467201 0.314827
vt 0.500506 0.124801
vt 0.857462 0.080118
s 0
usemtl マテリアル.003
f 3/7/1 1/1/1 2/4/1
f 3/8/2 2/5/2 5/14/2
f 3/9/3 5/15/3 4/11/3
f 3/10/4 4/12/4 1/2/4
f 5/16/5 2/6/5 1/3/5 4/13/5
