# Blender 3.5.0
# www.blender.org
mtllib TV.mtl
o 球.002
v 7.758947 -5.827793 -1.624108
v 7.758947 5.839798 -1.624108
v -7.758947 -5.827793 -1.624108
v 7.758947 -5.827793 -1.690385
v 7.489215 -5.827793 -1.879967
v 7.758947 -5.504389 -1.947676
v 7.758947 -5.244052 -2.101578
v 7.758947 -3.612166 -2.729901
v 6.783099 -5.244052 -2.548294
v 6.369055 -5.827793 -2.392745
v 5.329447 -5.244052 -2.996477
v 7.536975 -3.612166 -2.831513
v 5.921763 -3.612166 -3.329508
v 7.758947 -2.765513 -2.914904
v 7.758947 -1.841466 -3.080611
v 7.758947 -0.000000 -3.187828
v 6.286512 -1.841466 -3.534586
v 6.409672 -0.000000 -3.603830
v 4.330225 -1.841466 -3.927421
v 2.207530 -1.841466 -4.169329
v 4.415060 -0.000000 -4.004362
v 4.078981 -3.612166 -3.699551
v 3.670988 -5.244052 -3.329507
v 2.079447 -3.612166 -3.927422
v 1.871454 -5.244052 -3.534586
v -0.000000 -3.612166 -4.004365
v -2.079448 -3.612166 -3.927422
v 0.000002 -1.841466 -4.251010
v 0.000001 -5.244052 -3.603833
v -1.871452 -5.244052 -3.534586
v 0.000001 -5.827793 -3.383853
v 1.757219 -5.827793 -3.318833
v -1.757218 -5.827793 -3.318833
v -3.446907 -5.827793 -3.126272
v -3.670986 -5.244052 -3.329508
v -5.004134 -5.827793 -2.813571
v -6.369054 -5.827793 -2.392745
v -5.329446 -5.244052 -2.996478
v -6.783098 -5.244052 -2.548295
v -5.921765 -3.612166 -3.329508
v -7.536977 -3.612166 -2.831514
v -6.286510 -1.841466 -3.534586
v -4.078983 -3.612166 -3.699551
v -4.330223 -1.841466 -3.927422
v -4.415054 -0.000000 -4.004364
v -2.207528 -1.841466 -4.169329
v -2.250773 -0.000000 -4.251010
v -2.207528 1.841466 -4.169329
v 0.000004 -0.000000 -4.334291
v 0.000002 1.841466 -4.251010
v 2.250780 -0.000000 -4.251009
v 2.207530 1.841466 -4.169329
v 4.330225 1.841466 -3.927421
v 2.079447 3.612166 -3.927422
v -0.000000 3.612166 -4.004365
v 1.871454 5.244052 -3.534586
v 4.078981 3.612166 -3.699551
v 3.670988 5.244052 -3.329507
v 5.921763 3.612166 -3.329508
v 5.329447 5.244052 -2.996477
v 6.286512 1.841466 -3.534586
v 7.536975 3.612166 -2.831513
v 6.783099 5.244052 -2.548294
v 7.758947 2.765513 -2.914904
v 7.758947 3.612166 -2.729901
v 7.758947 5.244052 -2.101578
v 7.758947 5.504389 -1.947676
v 7.758947 5.839798 -1.680834
v 7.479202 5.839798 -1.877454
v 6.360539 5.839798 -2.389546
v 4.997444 5.839798 -2.809809
v 3.442300 5.839798 -3.122092
v 1.754869 5.839798 -3.314396
v 0.000001 5.839798 -3.379329
v 0.000001 5.244052 -3.603833
v -1.754868 5.839798 -3.314396
v -1.871452 5.244052 -3.534586
v -3.442298 5.839798 -3.122093
v -4.997443 5.839798 -2.809809
v -3.670986 5.244052 -3.329508
v -5.329446 5.244052 -2.996478
v -4.078983 3.612166 -3.699551
v -4.330223 1.841466 -3.927422
v -2.079448 3.612166 -3.927422
v -5.921765 3.612166 -3.329508
v -7.536977 3.612166 -2.831514
v -6.286510 1.841466 -3.534586
v -6.409667 -0.000000 -3.603833
v -7.758947 1.841466 -3.080612
v -7.758947 -0.000000 -3.187830
v -7.758947 2.765516 -2.914904
v -7.758947 3.612166 -2.729902
v -7.758947 5.244052 -2.101579
v -6.783098 5.244052 -2.548295
v -7.758947 5.504389 -1.947677
v -7.479202 5.839798 -1.877455
v -7.758947 5.839798 -1.680835
v -7.758947 5.839798 -1.624108
v -6.360539 5.839798 -2.389546
v -7.758947 -1.841466 -3.080612
v -7.758947 -2.765516 -2.914904
v -7.758947 -3.612166 -2.729902
v -7.758947 -5.244052 -2.101579
v -7.758947 -5.504389 -1.947677
v -7.489216 -5.827793 -1.879968
v -7.758947 -5.827793 -1.690386
v 7.758947 1.841466 -3.080611
v 3.446908 -5.827793 -3.126272
v 5.004135 -5.827793 -2.813570
v 7.758947 -5.827793 -4.285714
v 7.758947 5.839797 -4.285714
v 9.310000 -6.993998 9.312667
v 9.310000 7.006002 9.312667
v -7.758947 -5.827793 -4.285714
v -7.758947 5.839797 -4.285714
v -9.310000 -6.993998 9.312667
v -9.310000 7.006002 9.312667
v 9.310000 -6.993998 -4.687333
v 9.310000 7.006002 -4.687333
v -9.310000 7.006002 -4.687333
v -9.310000 -6.993998 -4.687333
v 7.758947 -5.827793 -1.624108
v 7.758947 5.839797 -1.624108
v -7.758947 5.839797 -1.624108
v -7.758947 -5.827793 -1.624108
vn -0.0000 -0.0000 1.0000
vn 1.0000 -0.0000 -0.0000
vn -0.0000 -1.0000 -0.0000
vn 0.4819 -0.5455 -0.6857
vn 0.3666 -0.4735 -0.8009
vn 0.3929 -0.3304 -0.8582
vn 0.2673 -0.4206 -0.8670
vn 0.2821 -0.2891 -0.9148
vn 0.2904 -0.1689 -0.9419
vn 0.4083 -0.1949 -0.8918
vn 0.2942 -0.0556 -0.9541
vn 0.1966 -0.0500 -0.9792
vn 0.1946 -0.1523 -0.9690
vn 0.1121 -0.1425 -0.9834
vn 0.1131 -0.0467 -0.9925
vn 0.1900 -0.2621 -0.9462
vn 0.1098 -0.2458 -0.9631
vn 0.0366 -0.1379 -0.9898
vn 0.0359 -0.2382 -0.9705
vn -0.0359 -0.2382 -0.9705
vn -0.0366 -0.1379 -0.9898
vn -0.0346 -0.3524 -0.9352
vn 0.0346 -0.3524 -0.9352
vn -0.1055 -0.3628 -0.9259
vn -0.1817 -0.3848 -0.9049
vn -0.2673 -0.4206 -0.8670
vn -0.2821 -0.2891 -0.9148
vn -0.1900 -0.2621 -0.9462
vn -0.2904 -0.1689 -0.9419
vn -0.1946 -0.1523 -0.9690
vn -0.1098 -0.2458 -0.9631
vn -0.1121 -0.1425 -0.9834
vn -0.1131 -0.0467 -0.9925
vn -0.1966 -0.0500 -0.9792
vn -0.0369 -0.0451 -0.9983
vn -0.1131 0.0467 -0.9925
vn -0.0369 0.0451 -0.9983
vn 0.0369 0.0451 -0.9983
vn 0.0369 -0.0451 -0.9983
vn 0.1131 0.0467 -0.9925
vn 0.1121 0.1425 -0.9834
vn 0.0366 0.1379 -0.9898
vn 0.0359 0.2382 -0.9705
vn 0.1098 0.2458 -0.9631
vn 0.1900 0.2621 -0.9462
vn 0.1946 0.1523 -0.9690
vn 0.2821 0.2891 -0.9148
vn 0.2904 0.1689 -0.9419
vn 0.3929 0.3304 -0.8582
vn 0.4083 0.1949 -0.8918
vn 0.3666 0.4735 -0.8009
vn 0.4819 0.5455 -0.6857
vn -0.0000 1.0000 -0.0000
vn 0.2673 0.4206 -0.8670
vn 0.1817 0.3848 -0.9049
vn 0.1055 0.3628 -0.9259
vn 0.0346 0.3524 -0.9352
vn -0.0346 0.3524 -0.9352
vn -0.1055 0.3628 -0.9259
vn -0.1817 0.3848 -0.9049
vn -0.1900 0.2621 -0.9462
vn -0.1098 0.2458 -0.9631
vn -0.1121 0.1425 -0.9834
vn -0.1946 0.1523 -0.9690
vn -0.2904 0.1689 -0.9419
vn -0.2821 0.2891 -0.9148
vn -0.1966 0.0500 -0.9792
vn -0.2942 0.0556 -0.9541
vn -1.0000 -0.0000 -0.0000
vn -0.4083 0.1949 -0.8918
vn -0.3929 0.3304 -0.8582
vn -0.3666 0.4735 -0.8009
vn -0.4819 0.5455 -0.6857
vn -0.2673 0.4206 -0.8670
vn -0.2942 -0.0556 -0.9541
vn -0.4083 -0.1949 -0.8918
vn -0.3929 -0.3304 -0.8582
vn -0.3666 -0.4735 -0.8009
vn -0.4819 -0.5455 -0.6857
vn -0.0359 0.2382 -0.9705
vn -0.0366 0.1379 -0.9898
vn 0.2942 0.0556 -0.9541
vn 0.1966 0.0500 -0.9792
vn 0.1055 -0.3628 -0.9259
vn 0.1817 -0.3848 -0.9049
vn -0.2507 -0.0000 -0.9681
vn 0.2507 -0.0000 -0.9681
vn -0.0000 0.3256 -0.9455
vn -0.0000 -0.3256 -0.9455
vn -0.0000 -0.0000 -1.0000
vt 0.395825 0.979175
vt 0.604175 0.979175
vt 0.395825 0.770825
vt 0.083611 0.286993
vt 0.395825 0.979175
vt 0.395825 0.975553
vt 0.093750 0.286993
vt 0.093750 0.301124
vt 0.401600 0.979175
vt 0.406249 0.979175
vt 0.099438 0.312500
vt 0.119767 0.375000
vt 0.435390 0.979175
vt 0.125000 0.312500
vt 0.395825 0.960514
vt 0.125000 0.286993
vt 0.156250 0.312500
vt 0.125000 0.375000
vt 0.156250 0.375000
vt 0.450509 0.979175
vt 0.125000 0.404884
vt 0.467009 0.979175
vt 0.129415 0.437500
vt 0.132132 0.500000
vt 0.499893 0.979175
vt 0.156250 0.437500
vt 0.156250 0.500000
vt 0.187500 0.437500
vt 0.218750 0.437500
vt 0.187500 0.500000
vt 0.187500 0.375000
vt 0.187500 0.312500
vt 0.218750 0.375000
vt 0.218750 0.312500
vt 0.250000 0.375000
vt 0.281250 0.375000
vt 0.250000 0.437500
vt 0.250000 0.312500
vt 0.281250 0.312500
vt 0.250000 0.286993
vt 0.395825 0.875000
vt 0.395825 0.898593
vt 0.218750 0.286993
vt 0.395825 0.851407
vt 0.281250 0.286993
vt 0.395825 0.828720
vt 0.312500 0.286993
vt 0.312500 0.312500
vt 0.395825 0.807812
vt 0.343750 0.286993
vt 0.395825 0.789486
vt 0.375000 0.286993
vt 0.343750 0.312500
vt 0.375000 0.312500
vt 0.343750 0.375000
vt 0.375000 0.375000
vt 0.343750 0.437500
vt 0.312500 0.375000
vt 0.312500 0.437500
vt 0.312500 0.500000
vt 0.281250 0.437500
vt 0.281250 0.500000
vt 0.281250 0.562500
vt 0.250000 0.500000
vt 0.250000 0.562500
vt 0.218750 0.500000
vt 0.218750 0.562500
vt 0.187500 0.562500
vt 0.218750 0.625000
vt 0.250000 0.625000
vt 0.218750 0.687500
vt 0.187500 0.625000
vt 0.187500 0.687500
vt 0.156250 0.625000
vt 0.156250 0.687500
vt 0.156250 0.562500
vt 0.125000 0.625000
vt 0.125000 0.687500
vt 0.549277 0.979175
vt 0.125000 0.595116
vt 0.119767 0.625000
vt 0.564396 0.979175
vt 0.593537 0.979175
vt 0.099438 0.687500
vt 0.598185 0.979175
vt 0.093750 0.698876
vt 0.083223 0.713531
vt 0.604175 0.979175
vt 0.093750 0.713531
vt 0.604175 0.975419
vt 0.604175 0.960399
vt 0.125000 0.713531
vt 0.604175 0.942098
vt 0.156250 0.713531
vt 0.604175 0.921218
vt 0.187500 0.713531
vt 0.604175 0.898562
vt 0.218750 0.713531
vt 0.250000 0.713531
vt 0.604175 0.875000
vt 0.250000 0.687500
vt 0.604175 0.851438
vt 0.281250 0.713531
vt 0.281250 0.687500
vt 0.604175 0.828782
vt 0.312500 0.713531
vt 0.604175 0.807902
vt 0.343750 0.713531
vt 0.312500 0.687500
vt 0.343750 0.687500
vt 0.312500 0.625000
vt 0.312500 0.562500
vt 0.281250 0.625000
vt 0.343750 0.625000
vt 0.375000 0.625000
vt 0.343750 0.562500
vt 0.343750 0.500000
vt 0.370585 0.562500
vt 0.532776 0.770825
vt 0.367868 0.500000
vt 0.499893 0.770825
vt 0.375000 0.595116
vt 0.549277 0.770825
vt 0.564396 0.770825
vt 0.380233 0.625000
vt 0.593537 0.770825
vt 0.400562 0.687500
vt 0.375000 0.687500
vt 0.598185 0.770825
vt 0.406250 0.698876
vt 0.604175 0.774581
vt 0.406250 0.713531
vt 0.416777 0.713531
vt 0.604175 0.770825
vt 0.604175 0.770825
vt 0.604175 0.789601
vt 0.375000 0.713531
vt 0.467009 0.770825
vt 0.370585 0.437500
vt 0.375000 0.404884
vt 0.450509 0.770825
vt 0.380233 0.375000
vt 0.435390 0.770825
vt 0.406249 0.770825
vt 0.400562 0.312500
vt 0.401600 0.770825
vt 0.406250 0.301124
vt 0.395825 0.774447
vt 0.406250 0.286993
vt 0.416389 0.286993
vt 0.395825 0.770825
vt 0.532776 0.979175
vt 0.129415 0.562500
vt 0.395825 0.921280
vt 0.187500 0.286993
vt 0.395825 0.942188
vt 0.156250 0.286993
vt 0.395825 0.979175
vt 0.604175 0.979175
vt 0.125000 0.500000
vt 0.375000 0.250000
vt 0.625000 0.250000
vt 0.875000 0.500000
vt 0.395825 0.770825
vt 0.604175 0.770825
vt 0.375000 0.500000
vt 0.625000 0.500000
vt 0.375000 0.000000
vt 0.125000 0.750000
vt 0.375000 1.000000
vt 0.625000 0.000000
vt 0.875000 0.750000
vt 0.625000 1.000000
vt 0.625000 0.750000
vt 0.375000 0.750000
vt 0.395825 0.979175
vt 0.604175 0.979175
vt 0.604175 0.770825
vt 0.395825 0.770825
s 0
usemtl マテリアル.014
f 98/135/1 1/1/1 2/2/1
f 66/83/2 67/85/2 2/2/2
f 109/156/3 10/15/3 1/1/3
f 6/8/4 4/4/4 5/7/4
f 7/11/5 6/8/5 5/7/5
f 7/11/6 12/18/6 8/12/6
f 11/17/7 10/16/7 109/157/7
f 13/19/8 9/14/8 11/17/8
f 17/26/9 15/23/9 14/21/9
f 8/12/10 12/18/10 14/21/10
f 15/23/11 18/27/11 16/24/11
f 21/30/12 17/26/12 19/28/12
f 19/28/13 13/19/13 22/31/13
f 20/29/14 22/31/14 24/33/14
f 51/66/15 19/28/15 20/29/15
f 22/31/16 11/17/16 23/32/16
f 24/33/17 23/32/17 25/34/17
f 28/37/18 24/33/18 26/35/18
f 26/35/19 25/34/19 29/38/19
f 30/39/20 26/35/20 29/38/20
f 27/36/21 28/37/21 26/35/21
f 33/45/22 29/38/22 31/40/22
f 29/38/23 32/43/23 31/40/23
f 34/47/24 30/39/24 33/45/24
f 36/50/25 35/48/25 34/47/25
f 38/53/26 37/52/26 39/54/26
f 39/54/27 40/55/27 38/53/27
f 38/53/28 43/58/28 35/48/28
f 40/55/29 101/140/29 42/57/29
f 40/55/30 44/59/30 43/58/30
f 35/48/31 27/36/31 30/39/31
f 43/58/32 46/61/32 27/36/32
f 44/59/33 47/62/33 46/61/33
f 42/57/34 45/60/34 44/59/34
f 46/61/35 49/64/35 28/37/35
f 83/112/36 47/62/36 45/60/36
f 48/63/37 49/64/37 47/62/37
f 49/64/38 52/67/38 51/66/38
f 49/64/39 20/29/39 28/37/39
f 51/66/40 53/68/40 21/30/40
f 52/67/41 57/72/41 53/68/41
f 50/65/42 54/69/42 52/67/42
f 55/70/43 56/71/43 54/69/43
f 54/69/44 58/73/44 57/72/44
f 57/72/45 60/75/45 59/74/45
f 53/68/46 59/74/46 61/76/46
f 59/74/47 63/78/47 62/77/47
f 59/74/48 62/77/48 64/80/48
f 62/77/49 66/84/49 65/81/49
f 65/81/50 64/80/50 62/77/50
f 63/78/51 70/92/51 69/89/51
f 69/89/52 68/87/52 67/86/52
f 99/136/53 96/131/53 98/135/53
f 70/92/54 60/75/54 71/94/54
f 71/94/55 58/73/55 72/96/55
f 72/96/56 56/71/56 73/98/56
f 73/98/57 75/101/57 74/99/57
f 75/101/58 76/103/58 74/99/58
f 77/104/59 78/106/59 76/103/59
f 80/109/60 79/108/60 78/106/60
f 81/110/61 82/111/61 85/114/61
f 80/109/62 84/113/62 82/111/62
f 82/111/63 48/63/63 83/112/63
f 85/114/64 83/112/64 87/116/64
f 87/116/65 89/118/65 91/122/65
f 94/128/66 85/114/66 86/115/66
f 87/116/67 45/60/67 88/117/67
f 88/117/68 89/118/68 87/116/68
f 103/144/69 104/146/69 3/3/69
f 86/115/70 91/122/70 92/125/70
f 86/115/71 93/127/71 94/128/71
f 94/128/72 93/127/72 96/132/72
f 96/132/73 95/130/73 97/133/73
f 81/110/74 99/137/74 79/108/74
f 88/117/75 100/139/75 90/120/75
f 41/56/76 102/142/76 101/140/76
f 41/56/77 103/145/77 102/142/77
f 39/54/78 37/52/78 105/149/78
f 104/147/79 105/149/79 106/150/79
f 77/104/80 55/70/80 84/113/80
f 84/113/81 50/65/81 48/63/81
f 18/27/82 107/153/82 16/24/82
f 21/30/83 61/76/83 18/27/83
f 25/34/84 108/155/84 32/43/84
f 23/32/85 109/157/85 108/155/85
f 119/171/2 112/161/2 118/168/2
f 113/162/1 116/166/1 112/161/1
f 117/167/69 121/175/69 116/166/69
f 110/158/69 123/177/69 111/159/69
f 116/166/3 118/169/3 112/160/3
f 113/163/53 120/174/53 117/167/53
f 111/159/86 118/170/86 110/158/86
f 114/164/87 120/174/87 115/165/87
f 110/158/88 121/175/88 114/164/88
f 115/165/89 119/173/89 111/159/89
f 124/178/90 122/176/90 125/179/90
f 111/159/3 124/178/3 115/165/3
f 115/165/2 125/179/2 114/164/2
f 114/164/53 122/176/53 110/158/53
f 98/135/1 3/3/1 1/1/1
f 68/88/2 2/2/2 67/85/2
f 2/2/2 1/1/2 16/25/2
f 107/152/2 2/2/2 16/25/2
f 1/1/2 4/5/2 6/9/2
f 6/9/2 7/10/2 1/1/2
f 7/10/2 8/13/2 1/1/2
f 8/13/2 14/20/2 1/1/2
f 14/20/2 15/22/2 1/1/2
f 15/22/2 16/25/2 1/1/2
f 107/152/2 64/79/2 2/2/2
f 64/79/2 65/82/2 2/2/2
f 65/82/2 66/83/2 2/2/2
f 4/5/3 1/1/3 5/6/3
f 1/1/3 3/3/3 31/41/3
f 5/6/3 1/1/3 10/15/3
f 3/3/3 106/151/3 105/148/3
f 105/148/3 37/51/3 3/3/3
f 37/51/3 36/49/3 3/3/3
f 36/49/3 34/46/3 3/3/3
f 34/46/3 33/44/3 3/3/3
f 33/44/3 31/41/3 3/3/3
f 31/41/3 32/42/3 1/1/3
f 32/42/3 108/154/3 1/1/3
f 108/154/3 109/156/3 1/1/3
f 5/7/5 10/16/5 9/14/5
f 9/14/5 7/11/5 5/7/5
f 7/11/6 9/14/6 12/18/6
f 11/17/7 9/14/7 10/16/7
f 13/19/8 12/18/8 9/14/8
f 14/21/9 12/18/9 13/19/9
f 13/19/9 17/26/9 14/21/9
f 15/23/11 17/26/11 18/27/11
f 21/30/12 18/27/12 17/26/12
f 19/28/13 17/26/13 13/19/13
f 20/29/14 19/28/14 22/31/14
f 51/66/15 21/30/15 19/28/15
f 22/31/16 13/19/16 11/17/16
f 24/33/17 22/31/17 23/32/17
f 28/37/18 20/29/18 24/33/18
f 26/35/19 24/33/19 25/34/19
f 30/39/20 27/36/20 26/35/20
f 27/36/21 46/61/21 28/37/21
f 33/45/22 30/39/22 29/38/22
f 29/38/23 25/34/23 32/43/23
f 34/47/24 35/48/24 30/39/24
f 36/50/25 38/53/25 35/48/25
f 38/53/26 36/50/26 37/52/26
f 39/54/27 41/56/27 40/55/27
f 38/53/28 40/55/28 43/58/28
f 41/56/29 101/140/29 40/55/29
f 101/140/29 100/139/29 42/57/29
f 40/55/30 42/57/30 44/59/30
f 35/48/31 43/58/31 27/36/31
f 43/58/32 44/59/32 46/61/32
f 44/59/33 45/60/33 47/62/33
f 42/57/34 88/117/34 45/60/34
f 46/61/35 47/62/35 49/64/35
f 83/112/36 48/63/36 47/62/36
f 48/63/37 50/65/37 49/64/37
f 49/64/38 50/65/38 52/67/38
f 49/64/39 51/66/39 20/29/39
f 51/66/40 52/67/40 53/68/40
f 52/67/41 54/69/41 57/72/41
f 50/65/42 55/70/42 54/69/42
f 55/70/43 75/101/43 56/71/43
f 54/69/44 56/71/44 58/73/44
f 57/72/45 58/73/45 60/75/45
f 53/68/46 57/72/46 59/74/46
f 59/74/47 60/75/47 63/78/47
f 107/153/48 61/76/48 64/80/48
f 61/76/48 59/74/48 64/80/48
f 62/77/49 63/78/49 66/84/49
f 69/89/51 67/86/51 66/84/51
f 66/84/51 63/78/51 69/89/51
f 96/131/53 97/134/53 98/135/53
f 98/135/53 2/2/53 74/100/53
f 2/2/53 68/88/53 69/90/53
f 74/100/53 2/2/53 73/97/53
f 69/90/53 70/91/53 2/2/53
f 70/91/53 71/93/53 2/2/53
f 71/93/53 72/95/53 2/2/53
f 72/95/53 73/97/53 2/2/53
f 74/100/53 76/102/53 98/135/53
f 76/102/53 78/105/53 98/135/53
f 78/105/53 79/107/53 98/135/53
f 79/107/53 99/136/53 98/135/53
f 70/92/54 63/78/54 60/75/54
f 71/94/55 60/75/55 58/73/55
f 72/96/56 58/73/56 56/71/56
f 73/98/57 56/71/57 75/101/57
f 75/101/58 77/104/58 76/103/58
f 77/104/59 80/109/59 78/106/59
f 80/109/60 81/110/60 79/108/60
f 81/110/61 80/109/61 82/111/61
f 80/109/62 77/104/62 84/113/62
f 82/111/63 84/113/63 48/63/63
f 85/114/64 82/111/64 83/112/64
f 91/122/65 86/115/65 85/114/65
f 85/114/65 87/116/65 91/122/65
f 94/128/66 81/110/66 85/114/66
f 87/116/67 83/112/67 45/60/67
f 88/117/68 90/120/68 89/118/68
f 104/146/69 106/151/69 3/3/69
f 3/3/69 98/135/69 90/121/69
f 98/135/69 97/134/69 95/129/69
f 90/121/69 98/135/69 89/119/69
f 95/129/69 93/126/69 98/135/69
f 93/126/69 92/124/69 98/135/69
f 92/124/69 91/123/69 98/135/69
f 91/123/69 89/119/69 98/135/69
f 90/121/69 100/138/69 3/3/69
f 100/138/69 101/141/69 3/3/69
f 101/141/69 102/143/69 3/3/69
f 102/143/69 103/144/69 3/3/69
f 86/115/71 92/125/71 93/127/71
f 95/130/72 96/132/72 93/127/72
f 96/132/72 99/137/72 94/128/72
f 81/110/74 94/128/74 99/137/74
f 88/117/75 42/57/75 100/139/75
f 41/56/77 39/54/77 103/145/77
f 104/147/78 103/145/78 105/149/78
f 103/145/78 39/54/78 105/149/78
f 77/104/80 75/101/80 55/70/80
f 84/113/81 55/70/81 50/65/81
f 18/27/82 61/76/82 107/153/82
f 21/30/83 53/68/83 61/76/83
f 25/34/84 23/32/84 108/155/84
f 23/32/85 11/17/85 109/157/85
f 119/171/2 113/162/2 112/161/2
f 113/162/1 117/167/1 116/166/1
f 117/167/69 120/174/69 121/175/69
f 110/158/69 122/176/69 123/177/69
f 116/166/3 121/175/3 118/169/3
f 113/163/53 119/172/53 120/174/53
f 111/159/86 119/173/86 118/170/86
f 114/164/87 121/175/87 120/174/87
f 110/158/88 118/170/88 121/175/88
f 115/165/89 120/174/89 119/173/89
f 124/178/90 123/177/90 122/176/90
f 111/159/3 123/177/3 124/178/3
f 115/165/2 124/178/2 125/179/2
f 114/164/53 125/179/53 122/176/53
