# Blender 3.5.0
# www.blender.org
mtllib Floor.mtl
o 立方体.009
v 4.000000 3.000000 -4.000000
v 4.000000 4.000000 -4.000000
v 4.000000 3.000000 4.000000
v 4.000000 4.000000 4.000000
v -4.000000 3.000000 -4.000000
v -4.000000 4.000000 -4.000000
v -4.000000 3.000000 4.000000
v -4.000000 4.000000 4.000000
v 4.000000 -4.000000 3.000000
v 4.000000 4.000000 3.000000
v 4.000000 -4.000000 4.000000
v 4.000000 4.000000 4.000000
v 3.000000 -4.000000 3.000000
v 3.000000 4.000000 3.000000
v 3.000000 -4.000000 4.000000
v 3.000000 4.000000 4.000000
v 4.000000 -4.000000 -4.000000
v 4.000000 4.000000 -4.000000
v 4.000000 -4.000000 -3.000000
v 4.000000 4.000000 -3.000000
v 3.000000 -4.000000 -4.000000
v 3.000000 4.000000 -4.000000
v 3.000000 -4.000000 -3.000000
v 3.000000 4.000000 -3.000000
v -3.000000 -4.000000 3.000000
v -3.000000 4.000000 3.000000
v -3.000000 -4.000000 4.000000
v -3.000000 4.000000 4.000000
v -4.000000 -4.000000 3.000000
v -4.000000 4.000000 3.000000
v -4.000000 -4.000000 4.000000
v -4.000000 4.000000 4.000000
v -3.000000 -4.000000 -4.000000
v -3.000000 4.000000 -4.000000
v -3.000000 -4.000000 -3.000000
v -3.000000 4.000000 -3.000000
v -4.000000 -4.000000 -4.000000
v -4.000000 4.000000 -4.000000
v -4.000000 -4.000000 -3.000000
v -4.000000 4.000000 -3.000000
v 4.000000 -4.000000 -4.000000
v 4.000000 -3.000000 -4.000000
v 4.000000 -4.000000 4.000000
v 4.000000 -3.000000 4.000000
v -4.000000 -4.000000 -4.000000
v -4.000000 -3.000000 -4.000000
v -4.000000 -4.000000 4.000000
v -4.000000 -3.000000 4.000000
v 3.535534 -2.828427 -4.000000
v -2.828427 3.535534 -4.000000
v 3.535534 -2.828427 -3.000000
v -2.828427 3.535534 -3.000000
v 2.828427 -3.535534 -4.000000
v -3.535534 2.828427 -4.000000
v 2.828427 -3.535534 -3.000000
v -3.535534 2.828427 -3.000000
v -2.828427 -3.535534 -4.000000
v 3.535534 2.828427 -4.000000
v -2.828427 -3.535534 -3.000000
v 3.535534 2.828427 -3.000000
v -3.535534 -2.828427 -4.000000
v 2.828427 3.535534 -4.000000
v -3.535534 -2.828427 -3.000000
v 2.828427 3.535534 -3.000000
v -2.828427 -3.535534 3.000000
v 3.535534 2.828427 3.000000
v -2.828427 -3.535534 4.000000
v 3.535534 2.828427 4.000000
v -3.535534 -2.828427 3.000000
v 2.828427 3.535534 3.000000
v -3.535534 -2.828427 4.000000
v 2.828427 3.535534 4.000000
v 3.535534 -2.828427 3.000000
v -2.828427 3.535534 3.000000
v 3.535534 -2.828427 4.000000
v -2.828427 3.535534 4.000000
v 2.828427 -3.535534 3.000000
v -3.535534 2.828427 3.000000
v 2.828427 -3.535534 4.000000
v -3.535534 2.828427 4.000000
v 4.000000 -3.535534 2.828427
v 4.000000 2.828427 -3.535534
v 4.000000 -2.828427 3.535534
v 4.000000 3.535534 -2.828427
v 3.000000 -3.535534 2.828427
v 3.000000 2.828427 -3.535534
v 3.000000 -2.828427 3.535534
v 3.000000 3.535534 -2.828427
v 4.000000 -2.828427 -3.535534
v 4.000000 3.535534 2.828427
v 4.000000 -3.535534 -2.828427
v 4.000000 2.828427 3.535534
v 3.000000 -2.828427 -3.535534
v 3.000000 3.535534 2.828427
v 3.000000 -3.535534 -2.828427
v 3.000000 2.828427 3.535534
v -3.000000 -2.828427 -3.535534
v -3.000000 3.535534 2.828427
v -3.000000 -3.535534 -2.828427
v -3.000000 2.828427 3.535534
v -4.000000 -2.828427 -3.535534
v -4.000000 3.535534 2.828427
v -4.000000 -3.535534 -2.828427
v -4.000000 2.828427 3.535534
v -3.000000 -3.535534 2.828427
v -3.000000 2.828427 -3.535534
v -3.000000 -2.828427 3.535534
v -3.000000 3.535534 -2.828427
v -4.000000 -3.535534 2.828427
v -4.000000 2.828427 -3.535534
v -4.000000 -2.828427 3.535534
v -4.000000 3.535534 -2.828427
vn 1.0000 -0.0000 -0.0000
vn -0.0000 -0.0000 1.0000
vn -1.0000 -0.0000 -0.0000
vn -0.0000 -0.0000 -1.0000
vn -0.0000 -1.0000 -0.0000
vn -0.0000 1.0000 -0.0000
vn 0.7071 0.7071 -0.0000
vn -0.7071 -0.7071 -0.0000
vn 0.7071 -0.7071 -0.0000
vn -0.7071 0.7071 -0.0000
vn -0.0000 0.7071 0.7071
vn -0.0000 -0.7071 -0.7071
vn -0.0000 -0.7071 0.7071
vn -0.0000 0.7071 -0.7071
vt 0.104479 0.618482
vt 0.104479 0.992295
vt 0.011026 0.898842
vt 0.197932 0.618482
vt 0.197932 0.992295
vt 0.291386 0.898842
vt 0.375000 0.250000
vt 0.011026 0.805389
vt 0.104479 0.711935
vt 0.197932 0.711935
vt 0.625000 0.250000
vt 0.291386 0.805389
vt 0.104479 0.898842
vt 0.197932 0.898842
vt 0.375000 0.500000
vt 0.104479 0.805389
vt 0.625000 0.500000
vt 0.197932 0.805389
vt 0.554174 0.626786
vt 0.554174 0.987092
vt 0.125000 0.750000
vt 0.644251 0.626786
vt 0.644251 0.987092
vt 0.875000 0.750000
vt 0.125000 0.500000
vt 0.554174 0.716862
vt 0.644251 0.716862
vt 0.875000 0.500000
vt 0.554174 0.897015
vt 0.375000 0.750000
vt 0.644251 0.897015
vt 0.625000 0.750000
vt 0.554174 0.806939
vt 0.375000 0.500000
vt 0.625000 0.500000
vt 0.644251 0.806939
vt 0.554174 0.626786
vt 0.554174 0.987092
vt 0.125000 0.750000
vt 0.644251 0.626786
vt 0.644251 0.987092
vt 0.875000 0.750000
vt 0.125000 0.500000
vt 0.554174 0.716862
vt 0.644251 0.716862
vt 0.875000 0.500000
vt 0.554174 0.897015
vt 0.375000 0.750000
vt 0.644251 0.897015
vt 0.625000 0.750000
vt 0.554174 0.806939
vt 0.375000 0.500000
vt 0.625000 0.500000
vt 0.644251 0.806939
vt 0.554174 0.626786
vt 0.554174 0.987092
vt 0.464098 0.897015
vt 0.644251 0.626786
vt 0.644251 0.987092
vt 0.734327 0.897015
vt 0.464098 0.806939
vt 0.554174 0.716862
vt 0.644251 0.716862
vt 0.734327 0.806939
vt 0.554174 0.897015
vt 0.644251 0.897015
vt 0.554174 0.806939
vt 0.644251 0.806939
vt 0.554174 0.626786
vt 0.554174 0.987092
vt 0.125000 0.750000
vt 0.644251 0.626786
vt 0.644251 0.987092
vt 0.875000 0.750000
vt 0.125000 0.500000
vt 0.554174 0.716862
vt 0.644251 0.716862
vt 0.875000 0.500000
vt 0.554174 0.897015
vt 0.375000 0.750000
vt 0.644251 0.897015
vt 0.625000 0.750000
vt 0.554174 0.806939
vt 0.375000 0.500000
vt 0.625000 0.500000
vt 0.644251 0.806939
vt 0.104479 0.618482
vt 0.375000 1.000000
vt 0.011026 0.898842
vt 0.197932 0.618482
vt 0.625000 1.000000
vt 0.291386 0.898842
vt 0.011026 0.805389
vt 0.104479 0.711935
vt 0.197932 0.711935
vt 0.291386 0.805389
vt 0.375000 0.750000
vt 0.104479 0.898842
vt 0.625000 0.750000
vt 0.197932 0.898842
vt 0.104479 0.805389
vt 0.197932 0.805389
vt 0.421500 0.040280
vt 0.421500 0.482259
vt 0.125000 0.750000
vt 0.531994 0.040280
vt 0.531994 0.482259
vt 0.875000 0.750000
vt 0.125000 0.500000
vt 0.421500 0.150775
vt 0.531994 0.150775
vt 0.875000 0.500000
vt 0.421500 0.371765
vt 0.375000 0.750000
vt 0.531994 0.371765
vt 0.625000 0.750000
vt 0.421500 0.261270
vt 0.375000 0.500000
vt 0.625000 0.500000
vt 0.531994 0.261270
vt 0.421500 0.040280
vt 0.421500 0.482259
vt 0.125000 0.750000
vt 0.531994 0.040280
vt 0.531994 0.482259
vt 0.875000 0.750000
vt 0.125000 0.500000
vt 0.421500 0.150775
vt 0.531994 0.150775
vt 0.875000 0.500000
vt 0.421500 0.371765
vt 0.375000 0.750000
vt 0.531994 0.371765
vt 0.625000 0.750000
vt 0.421500 0.261270
vt 0.375000 0.500000
vt 0.625000 0.500000
vt 0.531994 0.261270
vt 0.421500 0.040280
vt 0.421500 0.482259
vt 0.125000 0.750000
vt 0.531994 0.040280
vt 0.531994 0.482259
vt 0.875000 0.750000
vt 0.125000 0.500000
vt 0.421500 0.150775
vt 0.531994 0.150775
vt 0.875000 0.500000
vt 0.421500 0.371765
vt 0.375000 0.750000
vt 0.531994 0.371765
vt 0.625000 0.750000
vt 0.421500 0.261270
vt 0.375000 0.500000
vt 0.625000 0.500000
vt 0.531994 0.261270
vt 0.421500 0.040280
vt 0.421500 0.482259
vt 0.125000 0.750000
vt 0.531994 0.040280
vt 0.531994 0.482259
vt 0.875000 0.750000
vt 0.125000 0.500000
vt 0.421500 0.150775
vt 0.531994 0.150775
vt 0.875000 0.500000
vt 0.421500 0.371765
vt 0.375000 0.750000
vt 0.531994 0.371765
vt 0.625000 0.750000
vt 0.421500 0.261270
vt 0.375000 0.500000
vt 0.625000 0.500000
vt 0.531994 0.261270
vt 0.421500 0.040280
vt 0.421500 0.482259
vt 0.125000 0.750000
vt 0.531994 0.040280
vt 0.531994 0.482259
vt 0.875000 0.750000
vt 0.125000 0.500000
vt 0.421500 0.150775
vt 0.531994 0.150775
vt 0.875000 0.500000
vt 0.421500 0.371765
vt 0.375000 0.750000
vt 0.531994 0.371765
vt 0.625000 0.750000
vt 0.421500 0.261270
vt 0.375000 0.500000
vt 0.625000 0.500000
vt 0.531994 0.261270
vt 0.421500 0.040280
vt 0.421500 0.482259
vt 0.125000 0.750000
vt 0.531994 0.040280
vt 0.531994 0.482259
vt 0.875000 0.750000
vt 0.421500 0.150775
vt 0.125000 0.500000
vt 0.531994 0.150775
vt 0.875000 0.500000
vt 0.421500 0.371765
vt 0.375000 0.750000
vt 0.531994 0.371765
vt 0.625000 0.750000
vt 0.421500 0.261270
vt 0.375000 0.500000
vt 0.625000 0.500000
vt 0.531994 0.261270
vt 0.421500 0.040280
vt 0.421500 0.482259
vt 0.125000 0.750000
vt 0.531994 0.040280
vt 0.531994 0.482259
vt 0.875000 0.750000
vt 0.421500 0.150775
vt 0.125000 0.500000
vt 0.531994 0.150775
vt 0.875000 0.500000
vt 0.421500 0.371765
vt 0.375000 0.750000
vt 0.531994 0.371765
vt 0.625000 0.750000
vt 0.421500 0.261270
vt 0.375000 0.500000
vt 0.625000 0.500000
vt 0.531994 0.261270
vt 0.421500 0.040280
vt 0.421500 0.482259
vt 0.125000 0.750000
vt 0.531994 0.040280
vt 0.531994 0.482259
vt 0.875000 0.750000
vt 0.125000 0.500000
vt 0.421500 0.150775
vt 0.531994 0.150775
vt 0.875000 0.500000
vt 0.421500 0.371765
vt 0.375000 0.750000
vt 0.531994 0.371765
vt 0.625000 0.750000
vt 0.421500 0.261270
vt 0.375000 0.500000
vt 0.625000 0.500000
vt 0.531994 0.261270
s 0
usemtl マテリアル.017
f 2/4/1 3/9/1 1/1/1
f 4/11/2 7/15/2 3/7/2
f 8/18/3 5/13/3 7/16/3
f 6/14/4 1/2/4 5/13/4
f 7/16/5 1/3/5 3/8/5
f 4/12/6 6/14/6 8/18/6
f 10/22/1 11/26/1 9/19/1
f 12/27/2 15/33/2 11/26/2
f 16/36/3 13/29/3 15/33/3
f 14/31/4 9/20/4 13/29/4
f 15/34/5 9/21/5 11/25/5
f 12/28/6 14/32/6 16/35/6
f 18/40/1 19/44/1 17/37/1
f 20/45/2 23/51/2 19/44/2
f 24/54/3 21/47/3 23/51/3
f 22/49/4 17/38/4 21/47/4
f 23/52/5 17/39/5 19/43/5
f 20/46/6 22/50/6 24/53/6
f 26/58/1 27/62/1 25/55/1
f 28/63/2 31/67/2 27/62/2
f 32/68/3 29/65/3 31/67/3
f 30/66/4 25/56/4 29/65/4
f 31/67/5 25/57/5 27/61/5
f 28/64/6 30/66/6 32/68/6
f 34/72/1 35/76/1 33/69/1
f 36/77/2 39/83/2 35/76/2
f 40/86/3 37/79/3 39/83/3
f 38/81/4 33/70/4 37/79/4
f 39/84/5 33/71/5 35/75/5
f 36/78/6 38/82/6 40/85/6
f 42/90/1 43/94/1 41/87/1
f 44/95/2 47/101/2 43/94/2
f 48/102/3 45/98/3 47/101/3
f 46/99/4 41/88/4 45/97/4
f 47/101/5 41/89/5 43/93/5
f 44/96/6 46/100/6 48/102/6
f 50/106/7 51/110/7 49/103/7
f 51/110/2 56/120/2 55/117/2
f 56/120/8 53/113/8 55/117/8
f 54/115/4 49/104/4 53/113/4
f 55/118/9 49/105/9 51/109/9
f 52/112/10 54/116/10 56/119/10
f 58/124/9 59/128/9 57/121/9
f 60/129/2 63/135/2 59/128/2
f 64/138/10 61/131/10 63/135/10
f 61/131/4 58/125/4 57/122/4
f 63/136/8 57/123/8 59/127/8
f 60/130/7 62/134/7 64/137/7
f 66/142/9 67/146/9 65/139/9
f 68/147/2 71/153/2 67/146/2
f 72/156/10 69/149/10 71/153/10
f 69/149/4 66/143/4 65/140/4
f 71/154/8 65/141/8 67/145/8
f 68/148/7 70/152/7 72/155/7
f 74/160/7 75/164/7 73/157/7
f 75/164/2 80/174/2 79/171/2
f 80/174/8 77/167/8 79/171/8
f 78/169/4 73/158/4 77/167/4
f 79/172/9 73/159/9 75/163/9
f 76/166/10 78/170/10 80/173/10
f 82/178/1 83/182/1 81/175/1
f 84/183/11 87/189/11 83/182/11
f 87/189/3 86/187/3 85/185/3
f 86/187/12 81/176/12 85/185/12
f 87/190/13 81/177/13 83/181/13
f 84/184/14 86/188/14 88/191/14
f 89/193/1 92/201/1 91/199/1
f 92/201/13 95/207/13 91/199/13
f 96/210/3 93/203/3 95/207/3
f 94/205/14 89/194/14 93/203/14
f 95/208/12 89/195/12 91/200/12
f 92/202/11 94/206/11 96/209/11
f 97/211/1 100/219/1 99/217/1
f 100/219/13 103/225/13 99/217/13
f 104/228/3 101/221/3 103/225/3
f 102/223/14 97/212/14 101/221/14
f 103/226/12 97/213/12 99/218/12
f 100/220/11 102/224/11 104/227/11
f 106/232/1 107/236/1 105/229/1
f 108/237/11 111/243/11 107/236/11
f 111/243/3 110/241/3 109/239/3
f 110/241/12 105/230/12 109/239/12
f 111/244/13 105/231/13 107/235/13
f 108/238/14 110/242/14 112/245/14
f 2/4/1 4/10/1 3/9/1
f 4/11/2 8/17/2 7/15/2
f 8/18/3 6/14/3 5/13/3
f 6/14/4 2/5/4 1/2/4
f 7/16/5 5/13/5 1/3/5
f 4/12/6 2/6/6 6/14/6
f 10/22/1 12/27/1 11/26/1
f 12/27/2 16/36/2 15/33/2
f 16/36/3 14/31/3 13/29/3
f 14/31/4 10/23/4 9/20/4
f 15/34/5 13/30/5 9/21/5
f 12/28/6 10/24/6 14/32/6
f 18/40/1 20/45/1 19/44/1
f 20/45/2 24/54/2 23/51/2
f 24/54/3 22/49/3 21/47/3
f 22/49/4 18/41/4 17/38/4
f 23/52/5 21/48/5 17/39/5
f 20/46/6 18/42/6 22/50/6
f 26/58/1 28/63/1 27/62/1
f 28/63/2 32/68/2 31/67/2
f 32/68/3 30/66/3 29/65/3
f 30/66/4 26/59/4 25/56/4
f 31/67/5 29/65/5 25/57/5
f 28/64/6 26/60/6 30/66/6
f 34/72/1 36/77/1 35/76/1
f 36/77/2 40/86/2 39/83/2
f 40/86/3 38/81/3 37/79/3
f 38/81/4 34/73/4 33/70/4
f 39/84/5 37/80/5 33/71/5
f 36/78/6 34/74/6 38/82/6
f 42/90/1 44/95/1 43/94/1
f 44/95/2 48/102/2 47/101/2
f 48/102/3 46/100/3 45/98/3
f 46/99/4 42/91/4 41/88/4
f 47/101/5 45/98/5 41/89/5
f 44/96/6 42/92/6 46/100/6
f 50/106/7 52/111/7 51/110/7
f 51/110/2 52/111/2 56/120/2
f 56/120/8 54/115/8 53/113/8
f 54/115/4 50/107/4 49/104/4
f 55/118/9 53/114/9 49/105/9
f 52/112/10 50/108/10 54/116/10
f 58/124/9 60/129/9 59/128/9
f 60/129/2 64/138/2 63/135/2
f 64/138/10 62/133/10 61/131/10
f 61/131/4 62/133/4 58/125/4
f 63/136/8 61/132/8 57/123/8
f 60/130/7 58/126/7 62/134/7
f 66/142/9 68/147/9 67/146/9
f 68/147/2 72/156/2 71/153/2
f 72/156/10 70/151/10 69/149/10
f 69/149/4 70/151/4 66/143/4
f 71/154/8 69/150/8 65/141/8
f 68/148/7 66/144/7 70/152/7
f 74/160/7 76/165/7 75/164/7
f 75/164/2 76/165/2 80/174/2
f 80/174/8 78/169/8 77/167/8
f 78/169/4 74/161/4 73/158/4
f 79/172/9 77/168/9 73/159/9
f 76/166/10 74/162/10 78/170/10
f 82/178/1 84/183/1 83/182/1
f 84/183/11 88/192/11 87/189/11
f 87/189/3 88/192/3 86/187/3
f 86/187/12 82/179/12 81/176/12
f 87/190/13 85/186/13 81/177/13
f 84/184/14 82/180/14 86/188/14
f 89/193/1 90/196/1 92/201/1
f 92/201/13 96/210/13 95/207/13
f 96/210/3 94/205/3 93/203/3
f 94/205/14 90/197/14 89/194/14
f 95/208/12 93/204/12 89/195/12
f 92/202/11 90/198/11 94/206/11
f 97/211/1 98/214/1 100/219/1
f 100/219/13 104/228/13 103/225/13
f 104/228/3 102/223/3 101/221/3
f 102/223/14 98/215/14 97/212/14
f 103/226/12 101/222/12 97/213/12
f 100/220/11 98/216/11 102/224/11
f 106/232/1 108/237/1 107/236/1
f 108/237/11 112/246/11 111/243/11
f 111/243/3 112/246/3 110/241/3
f 110/241/12 106/233/12 105/230/12
f 111/244/13 109/240/13 105/231/13
f 108/238/14 106/234/14 110/242/14
