# Blender 3.5.0
# www.blender.org
mtllib Gift.mtl
o 立方体.003
v 4.913306 -4.913306 -4.913306
v 4.913306 4.913306 -4.913306
v 4.913306 -4.913306 4.913306
v 4.913306 4.913306 4.913306
v -4.913306 -4.913306 -4.913306
v -4.913306 4.913306 -4.913306
v -4.913306 -4.913306 4.913306
v -4.913306 4.913306 4.913306
vn 1.0000 -0.0000 -0.0000
vn -0.0000 -0.0000 1.0000
vn -1.0000 -0.0000 -0.0000
vn -0.0000 -0.0000 -1.0000
vn -0.0000 -1.0000 -0.0000
vn -0.0000 1.0000 -0.0000
vt 0.015055 0.021987
vt 0.009239 0.999755
vt 0.212015 0.695539
vt 0.993638 0.030680
vt 0.986083 1.004433
vt 0.789526 0.697729
vt 0.001581 0.034239
vt 0.212015 0.619569
vt 0.006362 1.000569
vt 0.984945 1.009263
vt 0.998419 0.034239
vt 0.789526 0.618677
vt 0.013917 0.022911
vt 0.000741 1.000052
vt 0.287985 0.695539
vt 0.996170 1.003190
vt 0.990761 0.027589
vt 0.710474 0.697729
vt 0.003830 0.020248
vt 0.001581 1.000997
vt 0.287985 0.619569
vt 0.710474 0.618677
vt 0.998419 1.000997
vt 0.999259 0.023386
s 0
usemtl マテリアル.003
f 2/4/1 3/9/1 1/1/1
f 4/11/2 7/20/2 3/7/2
f 8/24/3 5/14/3 7/19/3
f 6/17/4 1/2/4 5/13/4
f 7/21/5 1/3/5 3/8/5
f 4/12/6 6/18/6 8/22/6
f 2/4/1 4/10/1 3/9/1
f 4/11/2 8/23/2 7/20/2
f 8/24/3 6/16/3 5/14/3
f 6/17/4 2/5/4 1/2/4
f 7/21/5 5/15/5 1/3/5
f 4/12/6 2/6/6 6/18/6
