# Blender 3.5.0
# www.blender.org
mtllib obj0.mtl
o 立方体.001
v -5.000000 -5.000000 5.000000
v -5.000000 5.000000 5.000000
v -5.000000 -5.000000 -5.000000
v -5.000000 5.000000 -5.000000
v 5.000000 -5.000000 5.000000
v 5.000000 5.000000 5.000000
v 5.000000 -5.000000 -5.000000
v 5.000000 5.000000 -5.000000
v -5.000000 0.000000 5.000000
v -5.000000 0.000000 -5.000000
v 5.000000 0.000000 -5.000000
v 5.000000 0.000000 5.000000
v -5.000000 -5.000000 0.000000
v -5.000000 5.000000 0.000000
v 5.000000 -5.000000 0.000000
v 5.000000 5.000000 0.000000
v 5.000000 0.000000 0.000000
v -5.000000 0.000000 0.000000
v 18.814678 0.000000 -5.000000
v 18.814678 -5.000000 -5.000000
v 18.814678 -5.000000 0.000000
v 18.814678 0.000000 0.000000
v -14.210226 -5.000000 0.000000
v -14.210226 -5.000000 5.000000
v -14.210226 0.000000 5.000000
v -14.210226 0.000000 0.000000
v -5.000000 0.000000 14.481215
v -5.000000 5.000000 14.481215
v 5.000000 5.000000 14.481215
v 5.000000 0.000000 14.481215
v -5.000000 5.000000 -16.735100
v 5.000000 5.000000 -16.735100
v -5.000000 0.000000 -16.735100
v 5.000000 0.000000 -16.735100
vn -1.0000 -0.0000 -0.0000
vn 1.0000 -0.0000 -0.0000
vn -0.0000 -1.0000 -0.0000
vn -0.0000 1.0000 -0.0000
vn -0.0000 -0.0000 1.0000
vn -0.0000 -0.0000 -1.0000
vt 0.375000 1.000000
vt 0.125000 0.750000
vt 0.625000 0.000000
vt 0.875000 0.750000
vt 0.125000 0.500000
vt 0.375000 0.250000
vt 0.875000 0.500000
vt 0.625000 0.250000
vt 0.375000 0.750000
vt 0.625000 0.750000
vt 0.375000 0.500000
vt 0.625000 0.500000
vt 0.500000 0.000000
vt 0.500000 1.000000
vt 0.500000 0.250000
vt 0.500000 0.500000
vt 0.500000 0.750000
vt 0.125000 0.625000
vt 0.375000 0.125000
vt 0.875000 0.625000
vt 0.625000 0.125000
vt 0.375000 0.625000
vt 0.625000 0.625000
vt 0.500000 0.625000
vt 0.500000 0.125000
vt 0.500000 0.500000
vt 0.375000 0.500000
vt 0.375000 0.625000
vt 0.500000 0.625000
vt 0.375000 0.125000
vt 0.125000 0.625000
vt 0.375000 0.000000
vt 0.375000 1.000000
vt 0.125000 0.750000
vt 0.500000 0.000000
vt 0.500000 1.000000
vt 0.500000 0.125000
vt 0.500000 0.000000
vt 0.500000 1.000000
vt 0.625000 0.000000
vt 0.625000 1.000000
vt 0.875000 0.750000
vt 0.625000 0.750000
vt 0.500000 0.750000
vt 0.625000 0.250000
vt 0.875000 0.500000
vt 0.625000 0.500000
vt 0.500000 0.250000
vt 0.500000 0.500000
s 0
f 14/21/1 10/15/1 18/25/1
f 11/16/2 32/47/2 8/12/2
f 16/23/2 12/17/2 17/24/2
f 9/13/1 28/40/1 2/3/1
f 15/22/3 1/2/3 13/18/3
f 14/20/4 6/10/4 16/23/4
f 12/17/5 1/1/5 5/9/5
f 17/24/2 5/9/2 15/22/2
f 10/15/6 7/11/6 3/6/6
f 18/25/1 3/6/1 13/19/1
f 18/25/4 25/35/4 9/13/4
f 11/16/6 20/27/6 7/11/6
f 4/7/4 16/23/4 8/12/4
f 7/11/3 13/18/3 3/5/3
f 8/12/2 17/24/2 11/16/2
f 2/3/1 18/25/1 9/13/1
f 19/26/2 21/28/2 20/27/2
f 17/24/4 19/26/4 11/16/4
f 7/11/3 21/28/3 15/22/3
f 15/22/5 22/29/5 17/24/5
f 25/35/1 23/30/1 24/32/1
f 9/14/5 24/33/5 1/1/5
f 13/19/6 26/37/6 18/25/6
f 1/2/3 23/31/3 13/18/3
f 29/43/5 27/39/5 30/44/5
f 6/10/2 30/44/2 12/17/2
f 2/4/4 29/43/4 6/10/4
f 12/17/3 27/39/3 9/14/3
f 31/45/6 34/49/6 33/48/6
f 4/8/1 33/48/1 10/15/1
f 10/15/3 34/49/3 11/16/3
f 8/12/4 31/46/4 4/7/4
f 14/21/1 4/8/1 10/15/1
f 11/16/2 34/49/2 32/47/2
f 16/23/2 6/10/2 12/17/2
f 9/13/1 27/38/1 28/40/1
f 15/22/3 5/9/3 1/2/3
f 14/20/4 2/4/4 6/10/4
f 12/17/5 9/14/5 1/1/5
f 17/24/2 12/17/2 5/9/2
f 10/15/6 11/16/6 7/11/6
f 18/25/1 10/15/1 3/6/1
f 18/25/4 26/37/4 25/35/4
f 11/16/6 19/26/6 20/27/6
f 4/7/4 14/20/4 16/23/4
f 7/11/3 15/22/3 13/18/3
f 8/12/2 16/23/2 17/24/2
f 2/3/1 14/21/1 18/25/1
f 19/26/2 22/29/2 21/28/2
f 17/24/4 22/29/4 19/26/4
f 7/11/3 20/27/3 21/28/3
f 15/22/5 21/28/5 22/29/5
f 25/35/1 26/37/1 23/30/1
f 9/14/5 25/36/5 24/33/5
f 13/19/6 23/30/6 26/37/6
f 1/2/3 24/34/3 23/31/3
f 29/43/5 28/41/5 27/39/5
f 6/10/2 29/43/2 30/44/2
f 2/4/4 28/42/4 29/43/4
f 12/17/3 30/44/3 27/39/3
f 31/45/6 32/47/6 34/49/6
f 4/8/1 31/45/1 33/48/1
f 10/15/3 33/48/3 34/49/3
f 8/12/4 32/47/4 31/46/4
